<?xml version="1.0" encoding="UTF-8"?>
<svg id="Camada_1" xmlns="http://www.w3.org/2000/svg" version="1.1" viewBox="0 0 26.13 22.53">
  <!-- Generator: Adobe Illustrator 30.6.0, SVG Export Plug-In . SVG Version: 2.1.4 Build 109)  -->
  <defs>
    <style>
      .st0 {
        stroke-linecap: round;
      }

      .st0, .st1 {
        fill: none;
        stroke: #3d5a45;
        stroke-width: 1.4px;
      }

      .st1 {
        stroke-linecap: square;
        stroke-linejoin: round;
      }
    </style>
  </defs>
  <path class="st1" d="M10.6,17.9L5.18,5.53c.12-.27.2-.56.2-.88,0-1.15-.93-2.08-2.08-2.08s-2.08.93-2.08,2.08c0,.97.65,1.76,1.54,2l7.84,11.24h-.01Z"/>
  <path class="st1" d="M12.76,17.9l1.15-13.46c.24-.18.44-.4.6-.67.55-1.01.18-2.28-.83-2.82s-2.28-.18-2.82.83c-.46.84-.27,1.86.39,2.49l1.53,13.62h-.01Z"/>
  <path class="st1" d="M15.31,17.69l7.08-11.5c.29-.04.57-.16.83-.34.94-.65,1.18-1.95.53-2.9s-1.95-1.18-2.9-.53c-.79.55-1.08,1.54-.76,2.4l-4.76,12.85h-.01Z"/>
  <path class="st0" d="M.7,21.83s2.71-2.45,5.29-2.31,3.18,2,6.67,1.72,4.95-2.72,7.59-2.22,5.18,2.81,5.18,2.81"/>
</svg>